<svg aria-hidden="true" xmlns="http://www.w3.org/2000/svg" xmlns:xlink="http://www.w3.org/1999/xlink"><symbol viewBox="0 0 26 25" id="cart" xmlns="http://www.w3.org/2000/svg">
<path d="M7 4V3C7 1.35 5.65 0 4 0H0V2H4C4.55 2 5 2.45 5 3V18C5 19.65 6.35 21 8 21H24V19H8C7.45 19 7 18.55 7 18V16.85L23.49 14.26C24.1915 14.1445 24.829 13.7834 25.2888 13.2411C25.7486 12.6989 26.0007 12.0109 26 11.3V4H7ZM24 11.31C24 11.8 23.65 12.22 23.17 12.29L7 14.83V6H24V11.31ZM8 23.5C8 24.33 7.33 25 6.5 25C5.67 25 5 24.33 5 23.5C5 22.67 5.67 22 6.5 22C7.33 22 8 22.67 8 23.5ZM24 23.5C24 24.33 23.33 25 22.5 25C21.67 25 21 24.33 21 23.5C21 22.67 21.67 22 22.5 22C23.33 22 24 22.67 24 23.5Z"/>
</symbol><symbol viewBox="0 0 28 20" id="email" xmlns="http://www.w3.org/2000/svg">
<path d="M14 8.81L26.78 0.6C26.2662 0.214614 25.6423 0.00430105 25 0H3C2.35774 0.00430105 1.73381 0.214614 1.22 0.6L14 8.81ZM14.54 10.84L14.37 10.92H14.29C14.1979 10.9611 14.1001 10.9881 14 11C13.917 11.0105 13.833 11.0105 13.75 11H13.67L13.5 10.92L0.0999999 2.26C0.0359781 2.50154 0.0023847 2.75013 0 3V17C0 17.7956 0.316071 18.5587 0.87868 19.1213C1.44129 19.6839 2.20435 20 3 20H25C25.7956 20 26.5587 19.6839 27.1213 19.1213C27.6839 18.5587 28 17.7956 28 17V3C27.9976 2.75013 27.964 2.50154 27.9 2.26L14.54 10.84Z"/>
</symbol><symbol viewBox="0 0 10 19" id="fb" xmlns="http://www.w3.org/2000/svg">
<path d="M5.349 18.914V9.444H8.668L9.192 6.306H5.35V4.733C5.35 3.913 5.635 3.133 6.883 3.133H9.379V0H5.836C2.858 0 2.045 1.846 2.045 4.406V6.305H0V9.445H2.044V18.915H5.349V18.914Z"/>
</symbol><symbol viewBox="0 0 23 23" id="inst" xmlns="http://www.w3.org/2000/svg">
<path fill-rule="evenodd" clip-rule="evenodd" d="M11.134 0C8.114 0 7.729 0.0129997 6.544 0.0699997C5.359 0.129 4.552 0.315 3.846 0.598C3.09851 0.883348 2.42412 1.33192 1.872 1.911C1.30542 2.48359 0.867061 3.1701 0.586 3.925C0.309 4.645 0.12 5.475 0.0690002 6.679L0.066 6.755C0.018 7.906 0 8.34 0 11.363C0 14.445 0.0129997 14.831 0.0699997 16.047C0.126 17.257 0.309 18.081 0.586 18.801C0.862241 19.5583 1.30122 20.2458 1.872 20.815C2.42589 21.392 3.09978 21.8402 3.846 22.128C4.552 22.411 5.366 22.598 6.544 22.655C7.729 22.713 8.108 22.726 11.134 22.726C14.154 22.726 14.532 22.713 15.724 22.656C16.908 22.597 17.715 22.411 18.428 22.128C19.172 21.8399 19.8436 21.3916 20.395 20.815C20.9616 20.2424 21.3999 19.5559 21.681 18.801C21.952 18.081 22.141 17.257 22.198 16.047L22.201 15.971C22.249 14.82 22.267 14.386 22.267 11.363C22.267 8.281 22.255 7.895 22.197 6.679C22.141 5.469 21.952 4.646 21.681 3.925C21.4023 3.16891 20.9637 2.48191 20.395 1.911C19.8405 1.33479 19.1668 0.886672 18.421 0.598C17.709 0.315 16.902 0.128 15.717 0.0710001C14.532 0.0130001 14.153 0 11.134 0ZM10.142 2.042H11.138C14.107 2.042 14.46 2.055 15.633 2.106C16.717 2.157 17.303 2.344 17.701 2.499C18.218 2.704 18.589 2.949 18.981 3.348C19.371 3.747 19.611 4.126 19.812 4.654C19.964 5.053 20.147 5.658 20.197 6.764C20.247 7.961 20.26 8.322 20.26 11.352C20.26 14.382 20.248 14.743 20.197 15.94C20.147 17.047 19.964 17.645 19.812 18.05C19.6344 18.5414 19.3503 18.9874 18.98 19.356C18.59 19.756 18.224 20 17.7 20.206C17.31 20.36 16.717 20.546 15.633 20.598C14.46 20.65 14.107 20.663 11.138 20.663C8.168 20.663 7.815 20.65 6.643 20.598C5.558 20.547 4.972 20.36 4.575 20.206C4.08993 20.0224 3.65243 19.7318 3.295 19.356C2.92468 18.9874 2.64055 18.5414 2.463 18.05C2.311 17.651 2.129 17.047 2.078 15.94C2.028 14.743 2.015 14.383 2.015 11.352C2.015 8.322 2.028 7.962 2.078 6.764C2.128 5.658 2.311 5.059 2.463 4.654C2.665 4.126 2.904 3.747 3.295 3.348C3.685 2.948 4.058 2.704 4.575 2.498C4.965 2.344 5.558 2.158 6.643 2.106C7.67 2.055 8.067 2.042 10.141 2.042H10.142ZM15.739 5.302C15.739 4.548 16.338 3.937 17.075 3.937C17.813 3.937 18.412 4.548 18.412 5.301C18.412 6.054 17.812 6.665 17.075 6.665C16.338 6.665 15.739 6.054 15.739 5.301V5.302ZM11.129 5.532C7.97 5.532 5.417 8.144 5.417 11.362C5.417 14.585 7.977 17.191 11.129 17.191C14.287 17.191 16.841 14.578 16.841 11.361C16.841 8.138 14.287 5.531 11.129 5.531V5.532ZM14.841 11.354C14.841 9.264 13.183 7.571 11.134 7.571C9.085 7.571 7.427 9.263 7.427 11.354C7.427 13.445 9.085 15.138 11.134 15.138C13.184 15.138 14.841 13.445 14.841 11.354Z"/>
</symbol><symbol viewBox="0 0 18 18" id="linkin" xmlns="http://www.w3.org/2000/svg">
<path fill-rule="evenodd" clip-rule="evenodd" d="M2.076 4.108C3.372 4.108 4.179 3.195 4.179 2.053C4.155 0.886999 3.372 0 2.102 0C0.831999 0 0 0.886999 0 2.053C0 3.195 0.807001 4.108 2.054 4.108H2.076ZM17.33 17.622V10.806C17.33 7.155 15.497 5.455 13.053 5.455C11.08 5.455 10.197 6.609 9.703 7.418V5.735H5.988C6.038 6.85 5.988 17.622 5.988 17.622H9.704V10.983C9.704 10.628 9.728 10.273 9.826 10.02C10.094 9.31 10.706 8.575 11.731 8.575C13.077 8.575 13.614 9.665 13.614 11.263V17.623L17.33 17.622ZM3.93 5.732V17.619H0.214V5.732H3.929H3.93Z"/>
</symbol><symbol viewBox="0 0 19 23" id="pin" xmlns="http://www.w3.org/2000/svg">
<path fill-rule="evenodd" clip-rule="evenodd" d="M7.489 14.727C6.874 17.793 6.123 20.732 3.899 22.267C3.212 17.634 4.907 14.154 5.694 10.46C4.352 8.311 5.855 3.988 8.686 5.054C12.169 6.364 5.67 13.04 10.033 13.874C14.588 14.744 16.448 6.359 13.623 3.631C9.542 -0.306997 1.743 3.541 2.701 9.179C2.935 10.558 4.432 10.976 3.3 12.879C0.686997 12.327 -0.0920019 10.369 0.00799813 7.757C0.169998 3.482 4.048 0.489002 7.938 0.0750019C12.858 -0.448998 17.474 1.792 18.112 6.192C18.829 11.158 15.892 16.537 10.631 16.15C9.205 16.045 8.607 15.373 7.489 14.728V14.727Z"/>
</symbol><symbol viewBox="0 0 24 22" id="star" xmlns="http://www.w3.org/2000/svg">
<path d="M12.198 0L15.568 7.437L23.8 8.292L17.651 13.742L19.368 21.708L12.198 17.64L5.028 21.708L6.746 13.743L0.597 8.292L8.828 7.437L12.198 0Z"/>
</symbol><symbol viewBox="0 0 22 18" id="twit" xmlns="http://www.w3.org/2000/svg">
<path d="M19.589 5.0099C19.589 4.8179 19.585 4.6269 19.576 4.4379C20.4499 3.8247 21.2063 3.05915 21.809 2.1779C20.9898 2.52448 20.1237 2.74758 19.239 2.8399C20.1705 2.30294 20.8712 1.44129 21.207 0.419903C20.3258 0.922508 19.3654 1.27117 18.367 1.4509C17.9479 1.00196 17.4426 0.642161 16.8812 0.393019C16.3199 0.143877 15.7141 0.0105124 15.1 0.000903431C14.5163 -0.0109469 13.9361 0.0938871 13.3934 0.309256C12.8508 0.524625 12.3566 0.846191 11.9399 1.25509C11.5231 1.664 11.1923 2.152 10.9666 2.69048C10.741 3.22896 10.6252 3.80707 10.626 4.3909C10.626 4.7409 10.664 5.0809 10.742 5.4089C7.021 5.1829 3.723 3.3589 1.517 0.610903C1.11862 1.29476 0.909776 2.07247 0.912 2.8639C0.912 4.4239 1.702 5.8109 2.902 6.6289C2.18946 6.5985 1.49449 6.39828 0.875 6.0449V6.1019C0.87459 7.14048 1.23099 8.14768 1.88453 8.95486C2.53806 9.76205 3.44906 10.3202 4.465 10.5359C3.80531 10.7106 3.11443 10.7325 2.445 10.5999C2.72892 11.4925 3.28419 12.2743 4.03344 12.8364C4.78269 13.3986 5.68861 13.713 6.625 13.7359C5.03919 14.977 3.08171 15.648 1.068 15.6409C0.707 15.6409 0.35 15.6179 0 15.5769C2.04313 16.9001 4.42582 17.6031 6.86 17.6009C15.089 17.6029 19.589 10.8609 19.589 5.0109V5.0099Z"/>
</symbol></svg>